<mxfile host="app.diagrams.net" agent="Mozilla/5.0 (X11; Linux x86_64) AppleWebKit/537.36 (KHTML, like Gecko) Chrome/130.0.0.0 Safari/537.36" version="24.7.17">
  <diagram name="Page-1" id="2tOWbq8ezWcrBs4vHa_K">
    <mxGraphModel dx="1434" dy="728" grid="1" gridSize="10" guides="1" tooltips="1" connect="1" arrows="1" fold="1" page="1" pageScale="1" pageWidth="850" pageHeight="1100" math="0" shadow="0">
      <root>
        <mxCell id="0" />
        <mxCell id="1" parent="0" />
        <mxCell id="xKr1J6okfYAryBs_471h-2" value="Muzakki" style="whiteSpace=wrap;strokeWidth=2;" vertex="1" parent="1">
          <mxGeometry x="187" y="500" width="117" height="49" as="geometry" />
        </mxCell>
        <mxCell id="xKr1J6okfYAryBs_471h-3" value="UC1" style="whiteSpace=wrap;strokeWidth=2;" vertex="1" parent="1">
          <mxGeometry x="20" y="640" width="88" height="49" as="geometry" />
        </mxCell>
        <mxCell id="xKr1J6okfYAryBs_471h-4" value="UC2" style="whiteSpace=wrap;strokeWidth=2;" vertex="1" parent="1">
          <mxGeometry x="201" y="640" width="88" height="49" as="geometry" />
        </mxCell>
        <mxCell id="xKr1J6okfYAryBs_471h-5" value="UC3" style="whiteSpace=wrap;strokeWidth=2;" vertex="1" parent="1">
          <mxGeometry x="367" y="640" width="88" height="49" as="geometry" />
        </mxCell>
        <mxCell id="xKr1J6okfYAryBs_471h-6" value="Admin" style="whiteSpace=wrap;strokeWidth=2;" vertex="1" parent="1">
          <mxGeometry x="683" y="500" width="105" height="49" as="geometry" />
        </mxCell>
        <mxCell id="xKr1J6okfYAryBs_471h-7" value="UC4" style="whiteSpace=wrap;strokeWidth=2;" vertex="1" parent="1">
          <mxGeometry x="538" y="640" width="89" height="49" as="geometry" />
        </mxCell>
        <mxCell id="xKr1J6okfYAryBs_471h-8" value="UC5" style="whiteSpace=wrap;strokeWidth=2;" vertex="1" parent="1">
          <mxGeometry x="692" y="640" width="88" height="49" as="geometry" />
        </mxCell>
        <mxCell id="xKr1J6okfYAryBs_471h-9" value="UC6" style="whiteSpace=wrap;strokeWidth=2;" vertex="1" parent="1">
          <mxGeometry x="850" y="640" width="88" height="49" as="geometry" />
        </mxCell>
        <mxCell id="xKr1J6okfYAryBs_471h-10" value="Penerima" style="whiteSpace=wrap;strokeWidth=2;" vertex="1" parent="1">
          <mxGeometry x="1098" y="500" width="127" height="49" as="geometry" />
        </mxCell>
        <mxCell id="xKr1J6okfYAryBs_471h-11" value="UC7" style="whiteSpace=wrap;strokeWidth=2;" vertex="1" parent="1">
          <mxGeometry x="1026" y="640" width="89" height="49" as="geometry" />
        </mxCell>
        <mxCell id="xKr1J6okfYAryBs_471h-12" value="UC8" style="whiteSpace=wrap;strokeWidth=2;" vertex="1" parent="1">
          <mxGeometry x="1208" y="640" width="88" height="49" as="geometry" />
        </mxCell>
        <mxCell id="xKr1J6okfYAryBs_471h-13" value="Melihat Dashboard Wakaf" style="curved=1;startArrow=none;endArrow=block;exitX=0;exitY=0.96;entryX=0.5;entryY=-0.01;rounded=0;" edge="1" parent="1" source="xKr1J6okfYAryBs_471h-2" target="xKr1J6okfYAryBs_471h-3">
          <mxGeometry relative="1" as="geometry">
            <Array as="points">
              <mxPoint x="64" y="594" />
            </Array>
          </mxGeometry>
        </mxCell>
        <mxCell id="xKr1J6okfYAryBs_471h-14" value="Mengajukan Wakaf" style="curved=1;startArrow=none;endArrow=block;exitX=0.5;exitY=1;entryX=0.5;entryY=-0.01;rounded=0;" edge="1" parent="1" source="xKr1J6okfYAryBs_471h-2" target="xKr1J6okfYAryBs_471h-4">
          <mxGeometry relative="1" as="geometry">
            <Array as="points" />
          </mxGeometry>
        </mxCell>
        <mxCell id="xKr1J6okfYAryBs_471h-15" value="Melihat Status Wakaf" style="curved=1;startArrow=none;endArrow=block;exitX=1;exitY=1;entryX=0.5;entryY=-0.01;rounded=0;" edge="1" parent="1" source="xKr1J6okfYAryBs_471h-2" target="xKr1J6okfYAryBs_471h-5">
          <mxGeometry relative="1" as="geometry">
            <Array as="points">
              <mxPoint x="411" y="594" />
            </Array>
          </mxGeometry>
        </mxCell>
        <mxCell id="xKr1J6okfYAryBs_471h-16" value="Mengelola Pengguna" style="curved=1;startArrow=none;endArrow=block;exitX=0;exitY=0.99;entryX=0.5;entryY=-0.01;rounded=0;" edge="1" parent="1" source="xKr1J6okfYAryBs_471h-6" target="xKr1J6okfYAryBs_471h-7">
          <mxGeometry relative="1" as="geometry">
            <Array as="points">
              <mxPoint x="582" y="594" />
            </Array>
          </mxGeometry>
        </mxCell>
        <mxCell id="xKr1J6okfYAryBs_471h-17" value="Verifikasi Wakaf" style="curved=1;startArrow=none;endArrow=block;exitX=0.5;exitY=1;entryX=0.5;entryY=-0.01;rounded=0;" edge="1" parent="1" source="xKr1J6okfYAryBs_471h-6" target="xKr1J6okfYAryBs_471h-8">
          <mxGeometry relative="1" as="geometry">
            <Array as="points" />
          </mxGeometry>
        </mxCell>
        <mxCell id="xKr1J6okfYAryBs_471h-18" value="Kelola Laporan Wakaf" style="curved=1;startArrow=none;endArrow=block;exitX=1;exitY=0.97;entryX=0.5;entryY=-0.01;rounded=0;" edge="1" parent="1" source="xKr1J6okfYAryBs_471h-6" target="xKr1J6okfYAryBs_471h-9">
          <mxGeometry relative="1" as="geometry">
            <Array as="points">
              <mxPoint x="894" y="594" />
            </Array>
          </mxGeometry>
        </mxCell>
        <mxCell id="xKr1J6okfYAryBs_471h-19" value="Melihat Wakaf Masuk" style="curved=1;startArrow=none;endArrow=block;exitX=0.25;exitY=1;entryX=0.5;entryY=-0.01;rounded=0;" edge="1" parent="1" source="xKr1J6okfYAryBs_471h-10" target="xKr1J6okfYAryBs_471h-11">
          <mxGeometry relative="1" as="geometry">
            <Array as="points">
              <mxPoint x="1071" y="594" />
            </Array>
          </mxGeometry>
        </mxCell>
        <mxCell id="xKr1J6okfYAryBs_471h-20" value="Konfirmasi Penerimaan Wakaf" style="curved=1;startArrow=none;endArrow=block;exitX=0.75;exitY=1;entryX=0.5;entryY=-0.01;rounded=0;" edge="1" parent="1" source="xKr1J6okfYAryBs_471h-10" target="xKr1J6okfYAryBs_471h-12">
          <mxGeometry relative="1" as="geometry">
            <Array as="points">
              <mxPoint x="1252" y="594" />
            </Array>
          </mxGeometry>
        </mxCell>
      </root>
    </mxGraphModel>
  </diagram>
</mxfile>
